# xmcd
#
# Track frame offsets:
#	150
#	20032
#	33862
#	43130
#	53207
#	67755
#	83197
#	91697
#	105102
#	123182
#
# Disc length: 1784 seconds
#
# Revision: 1
# Processed by: cddbd v1.4b41PL1 Copyright (c) Steve Scherf et al.
# Submitted via: audiograbber 1.80
#
DISCID=6d06f60a
DTITLE=Various Artist - Gunfighter Ballads
DYEAR=1900
DGENRE=
TTITLE0=Marty Robbins - El Paso
TTITLE1=Johnny Cash - Don't Take Your Guns to Town
TTITLE2=Frankie Laine - Rawhide
TTITLE3=Claude King - The Comancheros
TTITLE4=Tennessee Ernie Ford - Cry of the Wild Goose
TTITLE5=Johnny Cash - Wanted Man
TTITLE6=Johnny Western - The Ballad of Paladin
TTITLE7=Gene Pitney - (The Man Who Shot) Liberty Valance
TTITLE8=Marty Robbins - Big Iron
TTITLE9=Johnny Horton - Johnny Reb
EXTD=
EXTT0=
EXTT1=
EXTT2=
EXTT3=
EXTT4=
EXTT5=
EXTT6=
EXTT7=
EXTT8=
EXTT9=
PLAYORDER=
